<svg width="24" height="26" viewBox="0 0 24 26" fill="none" xmlns="http://www.w3.org/2000/svg">
<path d="M12.0027 6.33393C8.59743 6.33393 5.85075 9.31016 5.85075 13C5.85075 16.6898 8.59743 19.6661 12.0027 19.6661C15.4079 19.6661 18.1546 16.6898 18.1546 13C18.1546 9.31016 15.4079 6.33393 12.0027 6.33393ZM12.0027 17.3338C9.80212 17.3338 8.00312 15.3903 8.00312 13C8.00312 10.6097 9.79677 8.66618 12.0027 8.66618C14.2086 8.66618 16.0022 10.6097 16.0022 13C16.0022 15.3903 14.2032 17.3338 12.0027 17.3338ZM19.8412 6.06125C19.8412 6.92569 19.1987 7.61609 18.4062 7.61609C17.6085 7.61609 16.9713 6.91989 16.9713 6.06125C16.9713 5.20261 17.6138 4.50641 18.4062 4.50641C19.1987 4.50641 19.8412 5.20261 19.8412 6.06125ZM23.9157 7.6393C23.8247 5.55651 23.3856 3.71159 21.9775 2.19157C20.5747 0.671538 18.8721 0.195805 16.9499 0.0913756C14.9689 -0.0304586 9.03112 -0.0304586 7.05008 0.0913756C5.1333 0.190003 3.43068 0.665737 2.02253 2.18576C0.614389 3.70579 0.180703 5.55071 0.0843279 7.63349C-0.0281093 9.7801 -0.0281093 16.2141 0.0843279 18.3607C0.175349 20.4435 0.614389 22.2884 2.02253 23.8084C3.43068 25.3285 5.12794 25.8042 7.05008 25.9086C9.03112 26.0305 14.9689 26.0305 16.9499 25.9086C18.8721 25.81 20.5747 25.3343 21.9775 23.8084C23.3803 22.2884 23.8193 20.4435 23.9157 18.3607C24.0281 16.2141 24.0281 9.7859 23.9157 7.6393ZM21.3564 20.664C20.9388 21.8011 20.1303 22.6771 19.0755 23.1354C17.496 23.8142 13.7481 23.6576 12.0027 23.6576C10.2572 23.6576 6.50396 23.8084 4.92984 23.1354C3.88042 22.6829 3.07195 21.8069 2.64897 20.664C2.02253 18.9525 2.16709 14.8913 2.16709 13C2.16709 11.1087 2.02789 7.04173 2.64897 5.33605C3.06659 4.19893 3.87507 3.32288 4.92984 2.86455C6.50931 2.18576 10.2572 2.34241 12.0027 2.34241C13.7481 2.34241 17.5014 2.19157 19.0755 2.86455C20.1249 3.31708 20.9334 4.19313 21.3564 5.33605C21.9828 7.04753 21.8383 11.1087 21.8383 13C21.8383 14.8913 21.9828 18.9583 21.3564 20.664Z" fill="white"/>
</svg>
