<svg xmlns="http://www.w3.org/2000/svg" xmlns:xlink="http://www.w3.org/1999/xlink" viewBox="0 0 496.35 182.53"><defs><style>.cls-1{fill:#f9a41c;}.cls-2,.cls-3,.cls-4,.cls-5{stroke:#fff;stroke-linejoin:round;stroke-width:10px;}.cls-2{fill:url(#linear-gradient);}.cls-3{fill:url(#linear-gradient-2);}.cls-4{fill:url(#linear-gradient-3);}.cls-5{fill:url(#linear-gradient-4);}</style><linearGradient id="linear-gradient" x1="9.83" y1="87.13" x2="135.01" y2="87.13" gradientUnits="userSpaceOnUse"><stop offset="0" stop-color="#ee3352"/><stop offset="0.56" stop-color="#dd1d41"/><stop offset="1" stop-color="#751323"/></linearGradient><linearGradient id="linear-gradient-2" x1="138.33" y1="88.23" x2="247.83" y2="88.23" xlink:href="#linear-gradient"/><linearGradient id="linear-gradient-3" x1="248.94" y1="88.45" x2="390.23" y2="88.45" xlink:href="#linear-gradient"/><linearGradient id="linear-gradient-4" x1="363.3" y1="90.11" x2="491.35" y2="90.11" xlink:href="#linear-gradient"/></defs><g id="Layer_2" data-name="Layer 2"><g id="resize"><g id="text-outline-02"><path class="cls-1" d="M51.66,16.29q37.53,0,51.66,8.61,21.87,12.8,21.86,42.83a55.6,55.6,0,0,1-13.69,37.09Q98,120.5,71.31,122.92q-10.82.89-11.7,2.21c-.15,0-.22.44-.22,1.33q0,4.64,2.87,24.72,2.87,20.32,2.87,24.73V177q-.88.88-19.87,2-21.42,1.11-30.91,1.1c-4.41,0-6.77-.14-7.06-.44q-1.56-1.54-1.77-14.79Q5.07,157.14,4,119.39,2.65,79,1.55,58.68,0,32.63,0,23.35A13.74,13.74,0,0,1,.22,19.6,390.26,390.26,0,0,1,51.66,16.29ZM81.47,70.82q0-16.33-22.74-16.34H50.56l.66,15.68q.44,12.59,1.55,15.89t5.07,3.31a47.1,47.1,0,0,0,7.29-1.1q16.34-3.53,16.34-16.34Z"/><path class="cls-1" d="M238,181.43q-14.35,1.09-77.05,1.1-31.8,0-31.79-.88l-.23-44.16q-.21-14.34-.22-42.16l-.22-79.26h55.64l-1.77,46.58q-.88,17-.88,33.34,0,11.48.66,24.06t.66,18.11l9.06-.45q7.95-.21,15-.66,15.9-.87,30.25-.88Z"/><path class="cls-1" d="M326.31,149.42l-17.22,1.1q-17.44,1.11-17.88,1.55l-2.65,28.7-49.46-.45.22-.66q4.63-14.11,13.47-55,9.5-43.71,15-71.31Q274,21.8,274.87,20.92t21-1.76q17.9-.89,35.77-.89,13.9,0,14.57.89.44.66,12.81,59.39,5.5,26.72,13,57,3.75,15.68,7.29,34.88l1.1,7.51-50.56,2.42ZM307.77,64.64q-2.88,0-6.63,24.28-3.75,25.17-3.75,29.15,0,1.09,9.27,1.1,13.24,0,13.25-1.55,0-1.75-4.86-24.5-5.3-24.72-5.74-26.05C308.87,65.45,308.35,64.64,307.77,64.64Z"/><path class="cls-1" d="M399.39,24.68A255.42,255.42,0,0,1,406,50.29q3.09,14.79,6.4,28,2.65,11.25,3.76,11.26c.58,0,1-.59,1.32-1.77q.88-3.31,3.09-14.35Q425,52.5,426.32,45q1.11-6.18,2.65-12.81l1.55-7.5,51-4.64q-23.85,70-37.31,102.44v57.18l-39.52,2.21-12.81.44.44-60.93q-5.74-7.29-24.06-55.2Q359,42.55,353.47,22.91Z"/><path class="cls-2" d="M61.5,5.22q37.53,0,51.66,8.61Q135,26.64,135,56.66a55.62,55.62,0,0,1-13.68,37.09q-13.47,15.69-40.19,18.11-10.81.89-11.7,2.2c-.14,0-.22.45-.22,1.33q0,4.64,2.87,24.73Q75,160.43,75,164.84V166q-.88.88-19.87,2Q33.67,169,24.18,169c-4.41,0-6.77-.15-7.06-.44q-1.55-1.54-1.77-14.8-.43-7.73-1.54-45.48-1.34-40.39-2.43-60.71Q9.83,21.56,9.83,12.29a14.29,14.29,0,0,1,.22-3.76A390.41,390.41,0,0,1,61.5,5.22ZM91.3,59.75q0-16.33-22.74-16.33H60.39l.66,15.67Q61.5,71.68,62.6,75c.73,2.2,2.43,3.31,5.08,3.31A47.69,47.69,0,0,0,75,77.19Q91.29,73.67,91.3,60.86Z"/><path class="cls-3" d="M247.83,170.36q-14.36,1.11-77.05,1.11-31.78,0-31.79-.89l-.22-44.15q-.22-14.36-.22-42.17L138.33,5H194L192.2,51.58q-.88,17-.89,33.34,0,11.49.67,24.07t.66,18.1l9.05-.44q8-.23,15-.66,15.9-.88,30.25-.89Z"/><path class="cls-4" d="M336.14,138.35l-17.22,1.1Q301.48,140.56,301,141l-2.65,28.7-49.45-.44.22-.66q4.64-14.13,13.46-55,9.5-43.71,15-71.31,6.18-31.56,7.06-32.45t21-1.77q17.88-.88,35.76-.88,13.92,0,14.57.88.45.66,12.81,59.39,5.52,26.72,13,57,3.77,15.67,7.29,34.88l1.1,7.51-50.55,2.43ZM317.6,53.57q-2.88,0-6.62,24.29Q307.22,103,307.22,107c0,.74,3.09,1.1,9.27,1.1q13.26,0,13.25-1.54,0-1.77-4.86-24.51-5.29-24.72-5.74-26C318.7,54.38,318.18,53.57,317.6,53.57Z"/><path class="cls-5" d="M409.22,13.61a255.42,255.42,0,0,1,6.62,25.61q3.09,14.79,6.41,28,2.64,11.26,3.75,11.26c.59,0,1-.59,1.33-1.77q.87-3.3,3.09-14.35,4.41-21,5.74-28.48,1.09-6.18,2.65-12.8l1.54-7.51,51-4.64Q467.5,79,454,111.42V168.6l-39.52,2.2-12.8.45.44-60.94q-5.75-7.29-24.07-55.19-9.27-23.62-14.79-43.28Z"/></g></g></g></svg>