<svg width="84" height="84" viewBox="0 0 84 84" fill="none" xmlns="http://www.w3.org/2000/svg">
<g filter="url(#filter0_d_49_62)">
<circle cx="42" cy="38" r="22" fill="black"/>
<path d="M48.9873 31.2237L46.8622 45.0065C46.8124 45.3297 46.6173 45.6114 46.3319 45.7718C46.1711 45.8621 45.9909 45.9078 45.8113 45.9078C45.6722 45.9078 45.535 45.8808 45.4032 45.8258L41.3323 44.1291L39.6436 46.6622C39.5141 46.8838 39.2982 47 39.0658 47C38.684 47 38.3752 46.6912 38.3752 46.3094V43.1158C38.3752 42.8796 38.4539 42.65 38.599 42.4637L45.8129 33.1873L36.0608 41.963L32.6537 40.5419C32.2801 40.3858 32.0269 40.0339 32.002 39.5989C31.9771 39.164 32.1836 38.8113 32.5353 38.6105L47.4108 30.1402C47.7658 29.9374 48.2037 29.956 48.5397 30.1869C48.8758 30.4178 49.0503 30.8206 48.9873 31.2237Z" fill="white"/>
</g>
<defs>
<filter id="filter0_d_49_62" x="0" y="0" width="84" height="84" filterUnits="userSpaceOnUse" color-interpolation-filters="sRGB">
<feFlood flood-opacity="0" result="BackgroundImageFix"/>
<feColorMatrix in="SourceAlpha" type="matrix" values="0 0 0 0 0 0 0 0 0 0 0 0 0 0 0 0 0 0 127 0" result="hardAlpha"/>
<feOffset dy="4"/>
<feGaussianBlur stdDeviation="10"/>
<feComposite in2="hardAlpha" operator="out"/>
<feColorMatrix type="matrix" values="0 0 0 0 0 0 0 0 0 0 0 0 0 0 0 0 0 0 0.15 0"/>
<feBlend mode="normal" in2="BackgroundImageFix" result="effect1_dropShadow_49_62"/>
<feBlend mode="normal" in="SourceGraphic" in2="effect1_dropShadow_49_62" result="shape"/>
</filter>
</defs>
</svg>
