<svg width="29" height="22" viewBox="0 0 29 22" fill="none" xmlns="http://www.w3.org/2000/svg">
<path d="M26.0191 5.48279C26.0375 5.72341 26.0375 5.96407 26.0375 6.20469C26.0375 13.5437 20.0572 22 9.12694 22C5.75952 22 2.63136 21.089 0 19.5078C0.478445 19.5594 0.938426 19.5766 1.43528 19.5766C4.2138 19.5766 6.77158 18.7 8.81411 17.2047C6.20115 17.1531 4.01142 15.5547 3.25696 13.3547C3.62501 13.4062 3.99301 13.4406 4.37947 13.4406C4.91308 13.4406 5.44675 13.3718 5.94355 13.2516C3.2202 12.7359 1.17762 10.5016 1.17762 7.80312V7.73439C1.96884 8.14689 2.88897 8.4047 3.86415 8.43904C2.26326 7.44214 1.21444 5.7406 1.21444 3.81559C1.21444 2.78436 1.5088 1.83904 2.02406 1.01404C4.94984 4.38278 9.34772 6.58275 14.2792 6.82341C14.1872 6.41091 14.1319 5.98127 14.1319 5.55157C14.1319 2.49216 16.7817 0 20.0755 0C21.7868 0 23.3325 0.670311 24.4182 1.75312C25.7614 1.51251 27.0495 1.04843 28.1904 0.412503C27.7487 1.70159 26.8103 2.78441 25.5774 3.47186C26.7735 3.35161 27.9328 3.04216 29 2.61252C28.1905 3.71247 27.1784 4.69212 26.0191 5.48279Z" fill="white"/>
</svg>
